<?xml version="1.0" encoding="UTF-8"?><svg id="_レイヤー_2" xmlns="http://www.w3.org/2000/svg" viewBox="0 0 130.386 137.63"><g id="_レイヤー_1-2"><g><rect width="130.386" height="137.63" fill="none"/><g><path d="m32.648,104.942c0-.35-.284-.634-.634-.634h-4.368c-.237,0-.455.133-.564.344l-3.832,7.451-3.832-7.451c-.109-.211-.326-.344-.564-.344h-4.368c-.35,0-.634.284-.634.634,0,.118.032.229.089.324,0,0,6.668,11.238,6.668,11.238v6.729c0,.35.284.634.634.634h4.013c.35,0,.634-.284.634-.634v-6.729s6.668-11.238,6.668-11.238c.056-.095.089-.205.089-.324Zm10.254-.243c-.098-.237-.329-.391-.585-.391h-3.359c-.256,0-.487.154-.585.391l-7.591,18.29c-.031.075-.048.157-.048.243,0,.35.284.634.634.634h3.889c.266,0,.504-.166.595-.416l1.103-3.007h7.366l1.103,3.007c.092.25.329.416.595.416h3.889c.35,0,.634-.284.634-.634,0-.086-.017-.168-.048-.243l-7.591-18.29Zm-4.513,11.833l2.248-6.13,2.248,6.13h-4.497Zm34.178-11.705c-.055-.301-.318-.519-.623-.519h-2.275c-.257,0-.488.155-.586.393l-4.784,11.626-4.784-11.626c-.098-.238-.329-.393-.586-.393h-2.666c-.306,0-.568.218-.623.519l-3.377,18.29c-.007.037-.01.076-.01.115,0,.35.284.634.634.634h3.86c.321,0,.591-.239.629-.558l1.181-9.747,4.205,9.918c.099.234.329.386.584.386h1.91c.254,0,.484-.152.584-.386l4.205-9.918,1.181,9.747c.039.318.309.558.629.558h3.469c.35,0,.634-.284.634-.634,0-.039-.004-.078-.01-.115l-3.377-18.29Zm17.267-.128c-.098-.237-.329-.391-.585-.391h-3.359c-.256,0-.487.154-.585.391l-7.591,18.29c-.031.075-.048.157-.048.243,0,.35.284.634.634.634h3.889c.266,0,.504-.166.595-.416l1.103-3.007h7.366l1.103,3.007c.092.25.329.416.595.416h3.889c.35,0,.634-.284.634-.634,0-.086-.017-.168-.048-.243l-7.591-18.29Zm-4.513,11.833l2.248-6.13,2.248,6.13h-4.497Zm22.577-12.224h-7.874c-.349,0-.634.284-.634.634v18.29c0,.349.284.634.634.634h4.013c.349,0,.634-.284.634-.634v-5.82h3.227c4.062,0,6.552-2.49,6.552-6.552s-2.49-6.552-6.552-6.552Zm-1.076,9.094h-2.151v-5.085h2.151c1.576,0,2.543.966,2.543,2.543s-.966,2.543-2.543,2.543Z"/><path d="m109.419,89.64L68.016,17.928c-.706-1.222-1.765-1.834-2.823-1.834s-2.117.611-2.823,1.834L20.967,89.64c-.381.659-.541,1.314-.539,1.925.006,1.656,1.3,2.965,3.362,2.965h10.776c2.003,0,3.825-1.244,4.554-3.11l17.098-43.748c.716-1.834,2.185-1.523,2.097.444l-1.885,42.442c-.106,2.383,1.414,3.972,3.799,3.972h46.367c2.062,0,3.356-1.309,3.362-2.965.002-.611-.158-1.266-.539-1.925Z" fill="#e50012"/></g></g></g></svg>